<svg id="eJ6Zs0nLG1S1" xmlns="http://www.w3.org/2000/svg" xmlns:xlink="http://www.w3.org/1999/xlink" viewBox="0 0 1920 1080" shape-rendering="geometricPrecision" text-rendering="geometricPrecision"><path d="M1942.45847,944.796693q-103.676848,78.156394-197.783526,100.486792-97.296734,9.57017-103.676848-82.941479t83.196239-299.699197q65.074945-279.683805,65.074945-279.683805c0,0-20.7686,112.150437-92.766411,203.532274q-71.997811,91.381837-106.612143,110.765863-27.691465,51.229212,27.691466,23.537746t217.378006-34.614332q73.382384,1.384574,123.227023,37.383479" transform="translate(.000001 0)" fill="none" stroke="#fff" stroke-width="3.84"/><path d="M0,586.491278Q149.400868,193.777257,1465.466626,128.875384q315.495214,5.177724,528.229131,254.08362" transform="translate(-4.999999 0)" fill="none" stroke-width="3.84"/><path d="M735.320555,1111.417628Q904.786556,493.047005,605.516809,697.257141Q172.837655,974.402562,363.937614,763.471475t-389.411238-521.017813" transform="translate(.000001 0)" fill="none" stroke="#fff" stroke-width="3.84"/><path d="M1324.845901,-71.238724Q1553.805286,0,1216.676113,831.979008q248.790513,30.648106,236.170704,151.437703t-66.704703,169.466002" transform="translate(0 0.000001)" fill="none" stroke="#fff" stroke-width="3.84"/><path d="M1386.142114,-71.238723q-95.549979,90.141489-16.225468,246.987682q61.296214,73.916023,102.761299-5.408489t21.633956-198.31128" transform="translate(4.000002-100.999998)" fill="none" stroke="#fff" stroke-width="3.84"/><path d="M317.06404,-35.182128Q290.021593,70.032771,363.937615,70.032771q117.183937,6.560554,198.311278,100.307701t95.549978,575.102705q12.619809,176.67732,178.480151,36.056596t97.352809-326.312194q243.240538,133.409406,481.284815,158.649023t543.270574-43.267916" transform="translate(.000002 0)" fill="none" stroke="#fff" stroke-width="3.84"/><path d="M-34.487772,500.258324Q363.937617,697.257141,547.826255,644.484708q213.428651-61.296213,238.320901-311.889556t97.005442-262.562381q164.128255-93.856763,347.946152-13c183.817897,80.856762,282.596603,203.449189,303.552984,221.477487s190.202119,228.959385,287.775192,209.128257q97.573073-19.831128,146.029214-198.311278" transform="translate(.000001 0)" fill="none" stroke="#fff" stroke-width="3.84"/></svg>