<svg id="ePSZM4ymzCe1" xmlns="http://www.w3.org/2000/svg" xmlns:xlink="http://www.w3.org/1999/xlink" viewBox="0 0 1600 1200" shape-rendering="geometricPrecision" text-rendering="geometricPrecision"><path d="M299.27589,-21.72339c0,110.30663-169.62907,364.61982-246.19841,450.76032-22.44901,25.25513-55.82039,39.52785-79.65243,63.35988-12.6137,12.6137-21.77206,27.20291-34.39536,39.82621" fill="none" stroke="#fff" stroke-width="2.5"/><path d="M-189.50036,863.50471c-1.67373,5.0212-6.72307,14.18152-1.81028,19.91311c14.27682,16.65629,146.89484,23.43045,175.59739,25.34395c183.37095,12.22473,350.76803-35.72132,521.36133-97.75525c24.41211-8.87713,46.94841-24.91054,68.79073-38.01593c41.24465-24.74679,88.40391-46.23986,119.47864-85.08327c42.98475-53.73093,79.45322-194.05752,104.99638-264.30123c16.09293-44.25555,35.33974-89.31369,66.98045-124.90949c51.08288-57.46824,264.11883-189.20205,338.52281-206.37219c38.52167-8.88961,78.14771-18.43,117.66836-21.72339c26.96697-2.24725,54.49574,2.24725,81.46271,0c16.44641-1.37053,35.96012-4.81721,52.49819-1.81028c18.04388,3.28071,34.567,20.90406,50.68791,28.96452c44.95377,22.47689,97.55591,39.82621,148.44316,39.82621" fill="none" stroke="#fff" stroke-width="2.5"/><path d="M1617.16148,691.52788c-70.55733-70.55733-51.13321-130.61782-76.03186-213.61332-6.80708-22.69027-15.48456-43.03511-23.53367-65.17017-1.11051-3.05391-5.65055-6.51393-3.62056-9.05141c6.27982-7.84977,24.15315,10.26629,28.96452,12.67198c41.30998,20.65499,32.88874,81.15672,16.29254,117.66836-18.8365,41.4403-64.25444,72.00675-88.70384,110.42723-38.18328,60.00229-49.47819,141.74878-114.04779,182.83852-37.40239,23.80152-136.21446,36.87056-157.49457,68.79073-17.41433,26.1215,4.18719,67.31652-3.62056,95.94497-8.59405,31.51152-25.30372,98.64028-56.11875,114.04779-69.25863,34.62931-157.01257,23.98357-231.71615,30.7748-45.67236,4.15203-90.14485,18.82497-133.9609,30.7748-74.58684,20.34186-152.58232,34.6028-224.47502,63.35988" transform="translate(0 0.000001)" fill="none" stroke="#fff" stroke-width="2.5"/><path d="M793.48298,-21.72339c-23.90899,9.5636-45.65363,32.40312-68.79073,45.25706C621.13691,81.06441,504.31413,163.68691,514.69949,298.6966c11.84687,154.00928,176.75648,209.63499,305.93773,217.23389c63.0619,3.70952,106.17311,17.75204,157.49457-27.15424c76.39006-66.8413-4.01939-156.08311-52.49819-204.56191-39.14425-39.14425-76.75245-76.75245-115.85807-115.85807-26.06335-26.06335-38.44176-61.83349-70.60101-83.27299-34.7874-23.1916-71.08551-21.19308-108.61694-36.20565-39.93291-15.97316-76.79006-56.87695-106.80666-86.89355" fill="none" stroke="#fff" stroke-width="2.5"/></svg>