<svg id="e024AaRUghE1" xmlns="http://www.w3.org/2000/svg" xmlns:xlink="http://www.w3.org/1999/xlink" viewBox="0 0 1600 3600" shape-rendering="geometricPrecision" text-rendering="geometricPrecision"><path d="M444.62956,-95.96296C374.74664,78.74436,352.90107,269.8103,280.21439,444.25833C236.44375,549.30787,160.7301,633.44836,92.31133,721.41534c-111.31168,143.11501-209.99352,358.21984-277.15701,526.12856" fill="none" stroke="#fff" stroke-width="7"/><path d="M1769.34611,481.83894c-69.12477-86.40596-143.45755-172.50994-239.5764-230.18124-133.99499-80.397-379.22948-65.81043-516.7334-4.69758-66.9396,29.75093-136.24232,99.33819-178.5079,159.7176-81.29819,116.14027-115.8298,463.31919-155.02002,620.08008-49.87686,199.50744-250.13358,350.67161-446.26976,389.89884-46.90719,9.38144-97.63088,10.79131-145.62487,18.7903-65.06235,10.84373-130.63525,32.88304-197.29821,32.88304" transform="translate(0 0.000001)" fill="none" stroke="#fff" stroke-width="7"/><path d="M-109.68445,1830.04336c17.45684,87.28421,191.74174,55.51641,258.3667,61.06849c175.12106,14.59342,415.95026-29.68198,521.43098-187.90306c31.17602-46.76404,39.53579-123.7004,75.16122-164.41517c17.36008-19.84009,74.03161-28.57116,65.76607-65.76607-18.03506-81.15776-216.08852-102.36277-216.08852,28.18546c0,65.13176,97.68507,180.99693,150.32245,216.08851c79.7958,53.1972,168.1038,58.4291,239.5764,150.32245c21.67977,27.874,47.30196,155.12875,75.16122,164.41517c11.57546,3.85849,42.13651-24.31405,46.97576-28.18546c90.36169-72.28935,133.02222-156.5101,211.39094-234.87882c39.05369-39.05369,88.78978-69.44247,112.74183-122.13699c20.91733-46.01812,9.10888-107.40013,28.18546-150.32245c10.80908-24.32044,193.77492-65.29627,230.18124-79.8588" fill="none" stroke="#fff" stroke-width="7"/><path d="M1764.64853,1064.33841c-100.63228-40.25291-170.08337,52.15865-253.66913,93.95153-80.16938,40.08469-242.28841,96.53976-324.13277,32.88303-31.25295-24.30785-47.79284-65.27025-65.76607-98.6491-33.40463-62.03717-66.47431-137.38609-51.67334-211.39094c12.9274-64.63702,143.37036-45.82157,192.60063-56.37092c71.87428-15.40163,142.40304-32.97527,216.08851-37.58061c159.16659-9.94791,286.38902,37.74375,413.38672-89.25395" fill="none" stroke="#fff" stroke-width="7"/><path d="M1792.83399,2944.54336c-49.45708-8.24285-97.17627-2.32747-146.79926-5.87197-173.20197-12.37157-343.46043-11.55153-516.7334,0-125.29081,8.35272-250.61265,2.11368-375.80611,11.74394-50.47448,3.88265-277.52616,97.19785-305.34247,76.33562-34.5922-25.94415-62.36238-161.80691-58.7197-205.51897c9.25906-111.10873,160.81315-202.02446,264.23867-164.41517c90.11968,32.77079,240.75079,195.16701,240.75079,293.59853c0,33.20635,3.82016,67.51641-5.87197,99.8235-6.13551,20.45171-108.26974,148.44811-135.05532,135.05532-12.57496-6.28748-22.26529-51.14315-23.48788-64.59168-15.29559-168.25142,76.12893-275.77593,187.90306-387.55005c115.40085-115.40085,320.03472-193.79968,393.42202-340.57429c32.1385-64.27701,31.55399-151.22942,11.74394-217.26291-2.86786-9.55952,3.81047-26.93924-5.87197-29.35985-18.01438-4.5036-36.18471,52.84774-17.61591,52.84774c0,0,11.74394-58.7197,11.74394-58.7197c10.54071-52.70357,28.30333-93.58292,64.59168-135.05532c91.4037-104.46137,241.65718-145.38053,369.93414-182.03109" fill="none" stroke="#fff" stroke-width="7"/><path d="M119.3224,3778.36318c40.9221-54.56279,80.18221-115.86411,135.05532-158.5432c99.20843-77.16211,258.3667-169.2346,258.3667-311.21444c0-16.29236,4.36159-50.78693-11.74394-64.59168-19.62661-16.82281-71.87268,5.01056-88.07956,17.61591-76.73602,59.68357,58.7197,372.1107,58.7197,469.75764" transform="translate(0 0.000001)" fill="none" stroke="#fff" stroke-width="7"/></svg>